<svg xmlns="http://www.w3.org/2000/svg" viewBox="0 0 600 300" role="img"><defs><marker id="a" viewBox="0 0 10 10" refX="9" refY="5" markerWidth="6" markerHeight="6" orient="auto-start-reverse"><path d="M0 0 L10 5 L0 10 z" fill="#F65009"/></marker></defs><rect width="600" height="300" fill="#1a1b1c"/><text x="300.0" y="40" font-family="monospace" font-size="13" fill="#F65009" fill-opacity="0.9" text-anchor="middle" letter-spacing="3">AGENT AUTONOME</text><path d="M 205 205 A 95 95 0 0 1 395 205" fill="none" fill-opacity="1" stroke="#F65009" stroke-width="2" stroke-opacity="1" stroke-linecap="round" stroke-linejoin="round"/><line x1="205.0" y1="205.0" x2="217.0" y2="205.0" stroke="#F65009" stroke-width="1.5" stroke-linecap="round" stroke-opacity="0.5"/><line x1="217.7275866404783" y1="157.5" x2="228.11989148589157" y2="163.5" stroke="#F65009" stroke-width="1.5" stroke-linecap="round" stroke-opacity="0.5"/><line x1="252.49999999999997" y1="122.72758664047834" x2="258.5" y2="133.1198914858916" stroke="#F65009" stroke-width="1.5" stroke-linecap="round" stroke-opacity="0.5"/><line x1="300.0" y1="110.0" x2="300.0" y2="122.0" stroke="#F65009" stroke-width="1.5" stroke-linecap="round" stroke-opacity="0.5"/><line x1="347.5" y1="122.72758664047832" x2="341.5" y2="133.11989148589157" stroke="#F65009" stroke-width="1.5" stroke-linecap="round" stroke-opacity="0.5"/><line x1="382.2724133595217" y1="157.5" x2="371.88010851410843" y2="163.5" stroke="#F65009" stroke-width="1.5" stroke-linecap="round" stroke-opacity="0.5"/><line x1="395.0" y1="205.0" x2="383.0" y2="205.0" stroke="#F65009" stroke-width="1.5" stroke-linecap="round" stroke-opacity="0.5"/><line x1="300" y1="205" x2="322.55824058937117" y2="135.5728743104538" stroke="#4a8d76" stroke-width="2.5" stroke-linecap="round" stroke-opacity="1" marker-end="url(#a)"/><circle cx="300" cy="205" r="5" fill="#F65009" fill-opacity="1" stroke="none" stroke-width="2" stroke-opacity="1"/><text x="205" y="227" font-family="monospace" font-size="11" fill="#F65009" fill-opacity="0.7" text-anchor="middle">supervisé</text><text x="395" y="227" font-family="monospace" font-size="11" fill="#F65009" fill-opacity="0.7" text-anchor="middle">autonome</text><text x="300" y="250" font-family="monospace" font-size="12" fill="#F65009" fill-opacity="0.6" text-anchor="middle">quel niveau pour quel risque ?</text></svg>