<svg xmlns="http://www.w3.org/2000/svg" viewBox="0 0 600 300" role="img"><defs><marker id="a" viewBox="0 0 10 10" refX="9" refY="5" markerWidth="6" markerHeight="6" orient="auto-start-reverse"><path d="M0 0 L10 5 L0 10 z" fill="#F65009"/></marker></defs><rect width="600" height="300" fill="#1a1b1c"/><text x="300.0" y="40" font-family="monospace" font-size="13" fill="#F65009" fill-opacity="0.9" text-anchor="middle" letter-spacing="3">SIMILARITÉ COSINUS</text><rect x="120" y="75" width="260" height="180" rx="6" fill="none" fill-opacity="1" stroke="#F65009" stroke-width="2" stroke-opacity="0.5"/><circle cx="160" cy="120" r="4" fill="#F65009" fill-opacity="0.7" stroke="none" stroke-width="2" stroke-opacity="1"/><circle cx="200" cy="210" r="4" fill="#F65009" fill-opacity="0.7" stroke="none" stroke-width="2" stroke-opacity="1"/><circle cx="270" cy="105" r="4" fill="#F65009" fill-opacity="0.7" stroke="none" stroke-width="2" stroke-opacity="1"/><circle cx="330" cy="175" r="4" fill="#F65009" fill-opacity="0.7" stroke="none" stroke-width="2" stroke-opacity="1"/><circle cx="230" cy="150" r="4" fill="#F65009" fill-opacity="0.7" stroke="none" stroke-width="2" stroke-opacity="1"/><circle cx="310" cy="235" r="4" fill="#F65009" fill-opacity="0.7" stroke="none" stroke-width="2" stroke-opacity="1"/><circle cx="170" cy="240" r="4" fill="#F65009" fill-opacity="0.7" stroke="none" stroke-width="2" stroke-opacity="1"/><circle cx="250" cy="165" r="6" fill="#4a8d76" fill-opacity="1" stroke="none" stroke-width="2" stroke-opacity="1"/><line x1="250" y1="165" x2="270" y2="105" stroke="#4a8d76" stroke-width="1.3" stroke-linecap="round" stroke-opacity="1" stroke-dasharray="3 3"/><line x1="250" y1="165" x2="230" y2="150" stroke="#4a8d76" stroke-width="1.3" stroke-linecap="round" stroke-opacity="1" stroke-dasharray="3 3"/><line x1="250" y1="165" x2="330" y2="175" stroke="#4a8d76" stroke-width="1.3" stroke-linecap="round" stroke-opacity="1" stroke-dasharray="3 3"/><rect x="420" y="140" width="110" height="46" rx="5" fill="none" fill-opacity="1" stroke="#F65009" stroke-width="2" stroke-opacity="1"/><text x="475.0" y="168.0" font-family="monospace" font-size="13" fill="#F65009" fill-opacity="1" text-anchor="middle">TOP-K</text><line x1="382" y1="163" x2="418" y2="163" stroke="#F65009" stroke-width="2" stroke-linecap="round" stroke-opacity="1" marker-end="url(#a)"/><text x="250" y="275" font-family="monospace" font-size="11" fill="#F65009" fill-opacity="0.55" text-anchor="middle">la géométrie n&#x27;est pas la compréhension</text></svg>