<svg xmlns="http://www.w3.org/2000/svg" viewBox="0 0 600 300" role="img"><defs><marker id="a" viewBox="0 0 10 10" refX="9" refY="5" markerWidth="6" markerHeight="6" orient="auto-start-reverse"><path d="M0 0 L10 5 L0 10 z" fill="#F65009"/></marker></defs><rect width="600" height="300" fill="#1a1b1c"/><text x="300.0" y="40" font-family="monospace" font-size="13" fill="#F65009" fill-opacity="0.9" text-anchor="middle" letter-spacing="3">SOUVERAINETÉ NUMÉRIQUE</text><circle cx="300" cy="150" r="60" fill="none" fill-opacity="1" stroke="#F65009" stroke-width="2" stroke-opacity="1"/><path d="M 300 120 a 16 16 0 1 1 -0.1 0 M 300 150 l 0 40 l 14 0 m -14 -18 l 10 0" fill="none" fill-opacity="1" stroke="#F65009" stroke-width="2" stroke-opacity="1" stroke-linecap="round" stroke-linejoin="round"/><text x="300" y="235" font-family="monospace" font-size="12" fill="#F65009" fill-opacity="0.7" text-anchor="middle">maîtriser ses choix</text><rect x="70" y="130" width="90" height="40" rx="5" fill="none" fill-opacity="1" stroke="#4a8d76" stroke-width="2" stroke-opacity="1"/><text x="115.0" y="155.0" font-family="monospace" font-size="11" fill="#4a8d76" fill-opacity="1" text-anchor="middle">données</text><rect x="70" y="180" width="90" height="40" rx="5" fill="none" fill-opacity="1" stroke="#4a8d76" stroke-width="2" stroke-opacity="1"/><text x="115.0" y="205.0" font-family="monospace" font-size="11" fill="#4a8d76" fill-opacity="1" text-anchor="middle">modèles</text><rect x="440" y="130" width="90" height="40" rx="5" fill="none" fill-opacity="1" stroke="#4a8d76" stroke-width="2" stroke-opacity="1"/><text x="485.0" y="155.0" font-family="monospace" font-size="11" fill="#4a8d76" fill-opacity="1" text-anchor="middle">infra</text><rect x="440" y="180" width="90" height="40" rx="5" fill="none" fill-opacity="1" stroke="#4a8d76" stroke-width="2" stroke-opacity="1"/><text x="485.0" y="205.0" font-family="monospace" font-size="11" fill="#4a8d76" fill-opacity="1" text-anchor="middle">code</text></svg>