<svg xmlns="http://www.w3.org/2000/svg" viewBox="0 0 600 300" role="img"><defs><marker id="a" viewBox="0 0 10 10" refX="9" refY="5" markerWidth="6" markerHeight="6" orient="auto-start-reverse"><path d="M0 0 L10 5 L0 10 z" fill="#F65009"/></marker></defs><rect width="600" height="300" fill="#1a1b1c"/><text x="300.0" y="40" font-family="monospace" font-size="13" fill="#F65009" fill-opacity="0.9" text-anchor="middle" letter-spacing="3">ATTENTION</text><rect x="56" y="200" width="68" height="40" rx="5" fill="none" fill-opacity="1" stroke="#F65009" stroke-width="2" stroke-opacity="1"/><text x="90.0" y="225.0" font-family="monospace" font-size="12" fill="#F65009" fill-opacity="1" text-anchor="middle">l&#x27;</text><rect x="161" y="200" width="68" height="40" rx="5" fill="none" fill-opacity="1" stroke="#F65009" stroke-width="2" stroke-opacity="1"/><text x="195.0" y="225.0" font-family="monospace" font-size="12" fill="#F65009" fill-opacity="1" text-anchor="middle">avocat</text><rect x="266" y="200" width="68" height="40" rx="5" fill="none" fill-opacity="1" stroke="#F65009" stroke-width="2" stroke-opacity="1"/><text x="300.0" y="225.0" font-family="monospace" font-size="12" fill="#F65009" fill-opacity="1" text-anchor="middle">plaide</text><rect x="371" y="200" width="68" height="40" rx="5" fill="none" fill-opacity="1" stroke="#F65009" stroke-width="2" stroke-opacity="1"/><text x="405.0" y="225.0" font-family="monospace" font-size="12" fill="#F65009" fill-opacity="1" text-anchor="middle">au</text><rect x="476" y="200" width="68" height="40" rx="5" fill="none" fill-opacity="1" stroke="#F65009" stroke-width="2" stroke-opacity="1"/><text x="510.0" y="225.0" font-family="monospace" font-size="12" fill="#F65009" fill-opacity="1" text-anchor="middle">tribunal</text><path d="M 195 200 Q 142.5 120 90 200" fill="none" fill-opacity="1" stroke="#F65009" stroke-width="1.6" stroke-opacity="0.25" stroke-linecap="round" stroke-linejoin="round"/><path d="M 195 200 Q 247.5 120 300 200" fill="none" fill-opacity="1" stroke="#F65009" stroke-width="1.6" stroke-opacity="0.25" stroke-linecap="round" stroke-linejoin="round"/><path d="M 195 200 Q 300.0 120 405 200" fill="none" fill-opacity="1" stroke="#F65009" stroke-width="1.6" stroke-opacity="0.25" stroke-linecap="round" stroke-linejoin="round"/><path d="M 195 200 Q 352.5 120 510 200" fill="none" fill-opacity="1" stroke="#F65009" stroke-width="1.6" stroke-opacity="0.7" stroke-linecap="round" stroke-linejoin="round"/><circle cx="195" cy="200" r="22" fill="none" fill-opacity="1" stroke="#4a8d76" stroke-width="2" stroke-opacity="1"/><text x="300" y="95" font-family="monospace" font-size="12" fill="#F65009" fill-opacity="0.6" text-anchor="middle">chaque mot regarde tous les autres</text></svg>