<svg xmlns="http://www.w3.org/2000/svg" viewBox="0 0 600 300" role="img"><defs><marker id="a" viewBox="0 0 10 10" refX="9" refY="5" markerWidth="6" markerHeight="6" orient="auto-start-reverse"><path d="M0 0 L10 5 L0 10 z" fill="#F65009"/></marker></defs><rect width="600" height="300" fill="#1a1b1c"/><text x="300.0" y="40" font-family="monospace" font-size="13" fill="#F65009" fill-opacity="0.9" text-anchor="middle" letter-spacing="3">BASE VECTORIELLE</text><rect x="90" y="70" width="300" height="190" rx="6" fill="none" fill-opacity="1" stroke="#F65009" stroke-width="2" stroke-opacity="0.5"/><circle cx="140" cy="120" r="4" fill="#F65009" fill-opacity="0.7" stroke="none" stroke-width="2" stroke-opacity="1"/><circle cx="180" cy="200" r="4" fill="#F65009" fill-opacity="0.7" stroke="none" stroke-width="2" stroke-opacity="1"/><circle cx="250" cy="110" r="4" fill="#F65009" fill-opacity="0.7" stroke="none" stroke-width="2" stroke-opacity="1"/><circle cx="320" cy="170" r="4" fill="#F65009" fill-opacity="0.7" stroke="none" stroke-width="2" stroke-opacity="1"/><circle cx="210" cy="150" r="4" fill="#F65009" fill-opacity="0.7" stroke="none" stroke-width="2" stroke-opacity="1"/><circle cx="300" cy="230" r="4" fill="#F65009" fill-opacity="0.7" stroke="none" stroke-width="2" stroke-opacity="1"/><circle cx="150" cy="240" r="4" fill="#F65009" fill-opacity="0.7" stroke="none" stroke-width="2" stroke-opacity="1"/><circle cx="240" cy="165" r="6" fill="#4a8d76" fill-opacity="1" stroke="none" stroke-width="2" stroke-opacity="1"/><line x1="240" y1="165" x2="250" y2="110" stroke="#4a8d76" stroke-width="1.4" stroke-linecap="round" stroke-opacity="1" stroke-dasharray="3 3"/><line x1="240" y1="165" x2="210" y2="150" stroke="#4a8d76" stroke-width="1.4" stroke-linecap="round" stroke-opacity="1" stroke-dasharray="3 3"/><line x1="240" y1="165" x2="320" y2="170" stroke="#4a8d76" stroke-width="1.4" stroke-linecap="round" stroke-opacity="1" stroke-dasharray="3 3"/><text x="240" y="191" font-family="monospace" font-size="11" fill="#4a8d76" fill-opacity="1" text-anchor="middle">requête</text><rect x="430" y="140" width="110" height="46" rx="5" fill="none" fill-opacity="1" stroke="#F65009" stroke-width="2" stroke-opacity="1"/><text x="485.0" y="168.0" font-family="monospace" font-size="13" fill="#F65009" fill-opacity="1" text-anchor="middle">TOP-K</text><line x1="390" y1="165" x2="428" y2="165" stroke="#F65009" stroke-width="2" stroke-linecap="round" stroke-opacity="1" marker-end="url(#a)"/></svg>